<!--?xml version="1.0" encoding="UTF-8" standalone="no"?-->
<svg width="2091pt" height="548pt" viewBox="0.00 0.00 2091.00 548.00" xmlns="http://www.w3.org/2000/svg" xmlns:xlink="http://www.w3.org/1999/xlink">
<g id="graph1" class="graph" transform="scale(1 1) rotate(0) translate(4 544)">
<title>T</title>
<polygon fill="white" stroke="white" points="-4,5 -4,-544 2088,-544 2088,5 -4,5"></polygon>
<!-- 16 -->
<g id="node1" class="node"><title>16</title>
<ellipse fill="none" stroke="black" cx="931" cy="-522" rx="58.9742" ry="18"></ellipse>
<text text-anchor="middle" x="931" y="-517.8" font-family="Times,serif" font-size="14.00">16 : Hussain</text>
</g>
<!-- 8 -->
<g id="node3" class="node"><title>8</title>
<ellipse fill="none" stroke="black" cx="698" cy="-450" rx="87.6106" ry="18"></ellipse>
<text text-anchor="middle" x="698" y="-445.8" font-family="Times,serif" font-size="14.00">8 : FELDEWERTH</text>
</g>
<!-- 16&#45;&gt;8 -->
<g id="edge2" class="edge"><title>16-&gt;8</title>
<path fill="none" stroke="black" d="M890.414,-508.807C852.996,-497.565 797.07,-480.763 755.141,-468.167"></path>
<polygon fill="black" stroke="black" points="755.928,-464.749 745.344,-465.224 753.914,-471.453 755.928,-464.749"></polygon>
</g>
<!-- 24 -->
<g id="node5" class="node"><title>24</title>
<ellipse fill="none" stroke="black" cx="1165" cy="-450" rx="62.2996" ry="18"></ellipse>
<text text-anchor="middle" x="1165" y="-445.8" font-family="Times,serif" font-size="14.00">24 : Radovan</text>
</g>
<!-- 16&#45;&gt;24 -->
<g id="edge4" class="edge"><title>16-&gt;24</title>
<path fill="none" stroke="black" d="M971.76,-508.807C1011.12,-497.033 1070.87,-479.159 1113.5,-466.406"></path>
<polygon fill="black" stroke="black" points="1114.55,-469.744 1123.13,-463.525 1112.55,-463.038 1114.55,-469.744"></polygon>
</g>
<!-- 4 -->
<g id="node7" class="node"><title>4</title>
<ellipse fill="none" stroke="black" cx="341" cy="-378" rx="48.3838" ry="18"></ellipse>
<text text-anchor="middle" x="341" y="-373.8" font-family="Times,serif" font-size="14.00">4 : Cheng</text>
</g>
<!-- 8&#45;&gt;4 -->
<g id="edge6" class="edge"><title>8-&gt;4</title>
<path fill="none" stroke="black" d="M637.035,-437.046C568.227,-423.554 457.472,-401.838 392.72,-389.141"></path>
<polygon fill="black" stroke="black" points="393.223,-385.673 382.736,-387.184 391.876,-392.542 393.223,-385.673"></polygon>
</g>
<!-- 12 -->
<g id="node9" class="node"><title>12</title>
<ellipse fill="none" stroke="black" cx="698" cy="-378" rx="72.577" ry="18"></ellipse>
<text text-anchor="middle" x="698" y="-373.8" font-family="Times,serif" font-size="14.00">12 : Handelman</text>
</g>
<!-- 8&#45;&gt;12 -->
<g id="edge8" class="edge"><title>8-&gt;12</title>
<path fill="none" stroke="black" d="M698,-431.697C698,-423.983 698,-414.712 698,-406.112"></path>
<polygon fill="black" stroke="black" points="701.5,-406.104 698,-396.104 694.5,-406.104 701.5,-406.104"></polygon>
</g>
<!-- 20 -->
<g id="node35" class="node"><title>20</title>
<ellipse fill="none" stroke="black" cx="1165" cy="-378" rx="54.2175" ry="18"></ellipse>
<text text-anchor="middle" x="1165" y="-373.8" font-family="Times,serif" font-size="14.00">20 : Macke</text>
</g>
<!-- 24&#45;&gt;20 -->
<g id="edge34" class="edge"><title>24-&gt;20</title>
<path fill="none" stroke="black" d="M1165,-431.697C1165,-423.983 1165,-414.712 1165,-406.112"></path>
<polygon fill="black" stroke="black" points="1168.5,-406.104 1165,-396.104 1161.5,-406.104 1168.5,-406.104"></polygon>
</g>
<!-- 28 -->
<g id="node37" class="node"><title>28</title>
<ellipse fill="none" stroke="black" cx="1524" cy="-378" rx="59.2886" ry="18"></ellipse>
<text text-anchor="middle" x="1524" y="-373.8" font-family="Times,serif" font-size="14.00">28 : Sugioka</text>
</g>
<!-- 24&#45;&gt;28 -->
<g id="edge36" class="edge"><title>24-&gt;28</title>
<path fill="none" stroke="black" d="M1215.3,-439.193C1281.05,-426.372 1396.01,-403.956 1465.56,-390.395"></path>
<polygon fill="black" stroke="black" points="1466.34,-393.81 1475.48,-388.461 1465,-386.939 1466.34,-393.81"></polygon>
</g>
<!-- 2 -->
<g id="node11" class="node"><title>2</title>
<ellipse fill="none" stroke="black" cx="162" cy="-306" rx="85.3675" ry="18"></ellipse>
<text text-anchor="middle" x="162" y="-301.8" font-family="Times,serif" font-size="14.00">2 : Chandrasekaran</text>
</g>
<!-- 4&#45;&gt;2 -->
<g id="edge10" class="edge"><title>4-&gt;2</title>
<path fill="none" stroke="black" d="M308.998,-364.485C281.476,-353.723 241.375,-338.04 210.006,-325.773"></path>
<polygon fill="black" stroke="black" points="211.163,-322.468 200.575,-322.085 208.614,-328.987 211.163,-322.468"></polygon>
</g>
<!-- 6 -->
<g id="node13" class="node"><title>6</title>
<ellipse fill="none" stroke="black" cx="341" cy="-306" rx="42.2372" ry="18"></ellipse>
<text text-anchor="middle" x="341" y="-301.8" font-family="Times,serif" font-size="14.00">6 : Choi</text>
</g>
<!-- 4&#45;&gt;6 -->
<g id="edge12" class="edge"><title>4-&gt;6</title>
<path fill="none" stroke="black" d="M341,-359.697C341,-351.983 341,-342.712 341,-334.112"></path>
<polygon fill="black" stroke="black" points="344.5,-334.104 341,-324.104 337.5,-334.104 344.5,-334.104"></polygon>
</g>
<!-- 10 -->
<g id="node23" class="node"><title>10</title>
<ellipse fill="none" stroke="black" cx="635" cy="-306" rx="50.5965" ry="18"></ellipse>
<text text-anchor="middle" x="635" y="-301.8" font-family="Times,serif" font-size="14.00">10 : Gross</text>
</g>
<!-- 12&#45;&gt;10 -->
<g id="edge22" class="edge"><title>12-&gt;10</title>
<path fill="none" stroke="black" d="M682.749,-360.055C674.897,-351.33 665.19,-340.544 656.583,-330.981"></path>
<polygon fill="black" stroke="black" points="658.968,-328.399 649.676,-323.307 653.764,-333.081 658.968,-328.399"></polygon>
</g>
<!-- 14 -->
<g id="node25" class="node"><title>14</title>
<ellipse fill="none" stroke="black" cx="761" cy="-306" rx="43.9398" ry="18"></ellipse>
<text text-anchor="middle" x="761" y="-301.8" font-family="Times,serif" font-size="14.00">14 : Hua</text>
</g>
<!-- 12&#45;&gt;14 -->
<g id="edge24" class="edge"><title>12-&gt;14</title>
<path fill="none" stroke="black" d="M713.251,-360.055C721.103,-351.33 730.81,-340.544 739.417,-330.981"></path>
<polygon fill="black" stroke="black" points="742.236,-333.081 746.324,-323.307 737.032,-328.399 742.236,-333.081"></polygon>
</g>
<!-- 1 -->
<g id="node15" class="node"><title>1</title>
<ellipse fill="none" stroke="black" cx="50" cy="-234" rx="50.3008" ry="18"></ellipse>
<text text-anchor="middle" x="50" y="-229.8" font-family="Times,serif" font-size="14.00">1 : Casino</text>
</g>
<!-- 2&#45;&gt;1 -->
<g id="edge14" class="edge"><title>2-&gt;1</title>
<path fill="none" stroke="black" d="M136.023,-288.765C120.065,-278.791 99.4884,-265.93 82.4611,-255.288"></path>
<polygon fill="black" stroke="black" points="84.2588,-252.284 73.9238,-249.952 80.5487,-258.22 84.2588,-252.284"></polygon>
</g>
<!-- 3 -->
<g id="node17" class="node"><title>3</title>
<ellipse fill="none" stroke="black" cx="162" cy="-234" rx="43.1449" ry="18"></ellipse>
<text text-anchor="middle" x="162" y="-229.8" font-family="Times,serif" font-size="14.00">3 : Chen</text>
</g>
<!-- 2&#45;&gt;3 -->
<g id="edge16" class="edge"><title>2-&gt;3</title>
<path fill="none" stroke="black" d="M162,-287.697C162,-279.983 162,-270.712 162,-262.112"></path>
<polygon fill="black" stroke="black" points="165.5,-262.104 162,-252.104 158.5,-262.104 165.5,-262.104"></polygon>
</g>
<!-- 5 -->
<g id="node19" class="node"><title>5</title>
<ellipse fill="none" stroke="black" cx="263" cy="-234" rx="39.2116" ry="18"></ellipse>
<text text-anchor="middle" x="263" y="-229.8" font-family="Times,serif" font-size="14.00">5 : Cho</text>
</g>
<!-- 6&#45;&gt;5 -->
<g id="edge18" class="edge"><title>6-&gt;5</title>
<path fill="none" stroke="black" d="M323.689,-289.465C313.114,-279.974 299.419,-267.684 287.715,-257.181"></path>
<polygon fill="black" stroke="black" points="289.774,-254.325 279.994,-250.251 285.099,-259.535 289.774,-254.325"></polygon>
</g>
<!-- 7 -->
<g id="node21" class="node"><title>7</title>
<ellipse fill="none" stroke="black" cx="373" cy="-234" rx="52.3285" ry="18"></ellipse>
<text text-anchor="middle" x="373" y="-229.8" font-family="Times,serif" font-size="14.00">7 : Dhillon</text>
</g>
<!-- 6&#45;&gt;7 -->
<g id="edge20" class="edge"><title>6-&gt;7</title>
<path fill="none" stroke="black" d="M348.746,-288.055C352.387,-280.091 356.812,-270.411 360.881,-261.51"></path>
<polygon fill="black" stroke="black" points="364.128,-262.825 365.103,-252.275 357.762,-259.915 364.128,-262.825"></polygon>
</g>
<!-- 9 -->
<g id="node27" class="node"><title>9</title>
<ellipse fill="none" stroke="black" cx="498" cy="-234" rx="54.2161" ry="18"></ellipse>
<text text-anchor="middle" x="498" y="-229.8" font-family="Times,serif" font-size="14.00">9 : Gierhan</text>
</g>
<!-- 10&#45;&gt;9 -->
<g id="edge26" class="edge"><title>10-&gt;9</title>
<path fill="none" stroke="black" d="M607.276,-290.834C586.66,-280.301 558.297,-265.809 535.634,-254.229"></path>
<polygon fill="black" stroke="black" points="537.123,-251.06 526.626,-249.626 533.938,-257.293 537.123,-251.06"></polygon>
</g>
<!-- 11 -->
<g id="node29" class="node"><title>11</title>
<ellipse fill="none" stroke="black" cx="635" cy="-234" rx="64.5251" ry="18"></ellipse>
<text text-anchor="middle" x="635" y="-229.8" font-family="Times,serif" font-size="14.00">11 : Hamilton</text>
</g>
<!-- 10&#45;&gt;11 -->
<g id="edge28" class="edge"><title>10-&gt;11</title>
<path fill="none" stroke="black" d="M635,-287.697C635,-279.983 635,-270.712 635,-262.112"></path>
<polygon fill="black" stroke="black" points="638.5,-262.104 635,-252.104 631.5,-262.104 638.5,-262.104"></polygon>
</g>
<!-- 13 -->
<g id="node31" class="node"><title>13</title>
<ellipse fill="none" stroke="black" cx="761" cy="-234" rx="43.3425" ry="18"></ellipse>
<text text-anchor="middle" x="761" y="-229.8" font-family="Times,serif" font-size="14.00">13 : Hill</text>
</g>
<!-- 14&#45;&gt;13 -->
<g id="edge30" class="edge"><title>14-&gt;13</title>
<path fill="none" stroke="black" d="M761,-287.697C761,-279.983 761,-270.712 761,-262.112"></path>
<polygon fill="black" stroke="black" points="764.5,-262.104 761,-252.104 757.5,-262.104 764.5,-262.104"></polygon>
</g>
<!-- 15 -->
<g id="node33" class="node"><title>15</title>
<ellipse fill="none" stroke="black" cx="867" cy="-234" rx="43.9398" ry="18"></ellipse>
<text text-anchor="middle" x="867" y="-229.8" font-family="Times,serif" font-size="14.00">15 : Hua</text>
</g>
<!-- 14&#45;&gt;15 -->
<g id="edge32" class="edge"><title>14-&gt;15</title>
<path fill="none" stroke="black" d="M783.221,-290.326C798.627,-280.152 819.342,-266.472 836.319,-255.261"></path>
<polygon fill="black" stroke="black" points="838.392,-258.086 844.808,-249.655 834.535,-252.245 838.392,-258.086"></polygon>
</g>
<!-- 18 -->
<g id="node39" class="node"><title>18</title>
<ellipse fill="none" stroke="black" cx="1095" cy="-306" rx="55.0286" ry="18"></ellipse>
<text text-anchor="middle" x="1095" y="-301.8" font-family="Times,serif" font-size="14.00">18 : Lamba</text>
</g>
<!-- 20&#45;&gt;18 -->
<g id="edge38" class="edge"><title>20-&gt;18</title>
<path fill="none" stroke="black" d="M1148.76,-360.765C1139.88,-351.882 1128.71,-340.709 1118.85,-330.854"></path>
<polygon fill="black" stroke="black" points="1121.18,-328.23 1111.63,-323.633 1116.23,-333.179 1121.18,-328.23"></polygon>
</g>
<!-- 22 -->
<g id="node41" class="node"><title>22</title>
<ellipse fill="none" stroke="black" cx="1236" cy="-306" rx="57.2577" ry="18"></ellipse>
<text text-anchor="middle" x="1236" y="-301.8" font-family="Times,serif" font-size="14.00">22 : Padgett</text>
</g>
<!-- 20&#45;&gt;22 -->
<g id="edge40" class="edge"><title>20-&gt;22</title>
<path fill="none" stroke="black" d="M1181.47,-360.765C1190.48,-351.882 1201.81,-340.709 1211.81,-330.854"></path>
<polygon fill="black" stroke="black" points="1214.47,-333.147 1219.13,-323.633 1209.55,-328.162 1214.47,-333.147"></polygon>
</g>
<!-- 26 -->
<g id="node51" class="node"><title>26</title>
<ellipse fill="none" stroke="black" cx="1524" cy="-306" rx="50.9243" ry="18"></ellipse>
<text text-anchor="middle" x="1524" y="-301.8" font-family="Times,serif" font-size="14.00">26 : Smith</text>
</g>
<!-- 28&#45;&gt;26 -->
<g id="edge50" class="edge"><title>28-&gt;26</title>
<path fill="none" stroke="black" d="M1524,-359.697C1524,-351.983 1524,-342.712 1524,-334.112"></path>
<polygon fill="black" stroke="black" points="1527.5,-334.104 1524,-324.104 1520.5,-334.104 1527.5,-334.104"></polygon>
</g>
<!-- 32 -->
<g id="node53" class="node"><title>32</title>
<ellipse fill="none" stroke="red" cx="1703" cy="-306" rx="45.357" ry="18"></ellipse>
<text text-anchor="middle" x="1703" y="-301.8" font-family="Times,serif" font-size="14.00">32 : Thai</text>
</g>
<!-- 28&#45;&gt;32 -->
<g id="edge52" class="edge"><title>28-&gt;32</title>
<path fill="none" stroke="black" d="M1558.94,-363.337C1588.5,-351.777 1630.9,-335.194 1662.05,-323.012"></path>
<polygon fill="black" stroke="black" points="1663.7,-326.125 1671.74,-319.224 1661.15,-319.606 1663.7,-326.125"></polygon>
</g>
<!-- 17 -->
<g id="node43" class="node"><title>17</title>
<ellipse fill="none" stroke="black" cx="971" cy="-234" rx="41.4266" ry="18"></ellipse>
<text text-anchor="middle" x="971" y="-229.8" font-family="Times,serif" font-size="14.00">17 : Joo</text>
</g>
<!-- 18&#45;&gt;17 -->
<g id="edge42" class="edge"><title>18-&gt;17</title>
<path fill="none" stroke="black" d="M1068.7,-290.155C1049.84,-279.505 1024.28,-265.079 1004.04,-253.652"></path>
<polygon fill="black" stroke="black" points="1005.59,-250.505 995.157,-248.637 1002.14,-256.601 1005.59,-250.505"></polygon>
</g>
<!-- 19 -->
<g id="node45" class="node"><title>19</title>
<ellipse fill="none" stroke="black" cx="1095" cy="-234" rx="64.5136" ry="18"></ellipse>
<text text-anchor="middle" x="1095" y="-229.8" font-family="Times,serif" font-size="14.00">19 : Levanoni</text>
</g>
<!-- 18&#45;&gt;19 -->
<g id="edge44" class="edge"><title>18-&gt;19</title>
<path fill="none" stroke="black" d="M1095,-287.697C1095,-279.983 1095,-270.712 1095,-262.112"></path>
<polygon fill="black" stroke="black" points="1098.5,-262.104 1095,-252.104 1091.5,-262.104 1098.5,-262.104"></polygon>
</g>
<!-- 21 -->
<g id="node47" class="node"><title>21</title>
<ellipse fill="none" stroke="black" cx="1236" cy="-234" rx="58.3687" ry="18"></ellipse>
<text text-anchor="middle" x="1236" y="-229.8" font-family="Times,serif" font-size="14.00">21 : Mughal</text>
</g>
<!-- 22&#45;&gt;21 -->
<g id="edge46" class="edge"><title>22-&gt;21</title>
<path fill="none" stroke="black" d="M1236,-287.697C1236,-279.983 1236,-270.712 1236,-262.112"></path>
<polygon fill="black" stroke="black" points="1239.5,-262.104 1236,-252.104 1232.5,-262.104 1239.5,-262.104"></polygon>
</g>
<!-- 23 -->
<g id="node49" class="node"><title>23</title>
<ellipse fill="none" stroke="black" cx="1358" cy="-234" rx="45.357" ry="18"></ellipse>
<text text-anchor="middle" x="1358" y="-229.8" font-family="Times,serif" font-size="14.00">23 : Park</text>
</g>
<!-- 22&#45;&gt;23 -->
<g id="edge48" class="edge"><title>22-&gt;23</title>
<path fill="none" stroke="black" d="M1262.17,-289.983C1280.3,-279.579 1304.61,-265.632 1324.21,-254.389"></path>
<polygon fill="black" stroke="black" points="1326.19,-257.288 1333.12,-249.275 1322.71,-251.216 1326.19,-257.288"></polygon>
</g>
<!-- 25 -->
<g id="node55" class="node"><title>25</title>
<ellipse fill="none" stroke="black" cx="1466" cy="-234" rx="43.1449" ry="18"></ellipse>
<text text-anchor="middle" x="1466" y="-229.8" font-family="Times,serif" font-size="14.00">25 : Ray</text>
</g>
<!-- 26&#45;&gt;25 -->
<g id="edge54" class="edge"><title>26-&gt;25</title>
<path fill="none" stroke="black" d="M1510.25,-288.411C1503.03,-279.693 1494.04,-268.845 1486.06,-259.208"></path>
<polygon fill="black" stroke="black" points="1488.72,-256.937 1479.65,-251.47 1483.33,-261.403 1488.72,-256.937"></polygon>
</g>
<!-- 27 -->
<g id="node57" class="node"><title>27</title>
<ellipse fill="none" stroke="black" cx="1582" cy="-234" rx="54.232" ry="18"></ellipse>
<text text-anchor="middle" x="1582" y="-229.8" font-family="Times,serif" font-size="14.00">27 : Sparks</text>
</g>
<!-- 26&#45;&gt;27 -->
<g id="edge56" class="edge"><title>26-&gt;27</title>
<path fill="none" stroke="black" d="M1537.75,-288.411C1544.97,-279.693 1553.96,-268.845 1561.94,-259.208"></path>
<polygon fill="black" stroke="black" points="1564.67,-261.403 1568.35,-251.47 1559.28,-256.937 1564.67,-261.403"></polygon>
</g>
<!-- 30 -->
<g id="node59" class="node"><title>30</title>
<ellipse fill="none" stroke="black" cx="1703" cy="-234" rx="48.073" ry="18"></ellipse>
<text text-anchor="middle" x="1703" y="-229.8" font-family="Times,serif" font-size="14.00">30 : Tang</text>
</g>
<!-- 32&#45;&gt;30 -->
<g id="edge58" class="edge"><title>32-&gt;30</title>
<path fill="none" stroke="black" d="M1703,-287.697C1703,-279.983 1703,-270.712 1703,-262.112"></path>
<polygon fill="black" stroke="black" points="1706.5,-262.104 1703,-252.104 1699.5,-262.104 1706.5,-262.104"></polygon>
</g>
<!-- 34 -->
<g id="node61" class="node"><title>34</title>
<ellipse fill="none" stroke="black" cx="1833" cy="-234" rx="50.8983" ry="18"></ellipse>
<text text-anchor="middle" x="1833" y="-229.8" font-family="Times,serif" font-size="14.00">34 : Wang</text>
</g>
<!-- 32&#45;&gt;34 -->
<g id="edge60" class="edge"><title>32-&gt;34</title>
<path fill="none" stroke="black" d="M1728.99,-291.003C1748.57,-280.46 1775.65,-265.882 1797.26,-254.242"></path>
<polygon fill="black" stroke="black" points="1799.01,-257.277 1806.16,-249.454 1795.69,-251.114 1799.01,-257.277"></polygon>
</g>
<!-- 29 -->
<g id="node63" class="node"><title>29</title>
<ellipse fill="none" stroke="black" cx="1554" cy="-162" rx="65.6185" ry="18"></ellipse>
<text text-anchor="middle" x="1554" y="-157.8" font-family="Times,serif" font-size="14.00">29 : Tamarkin</text>
</g>
<!-- 30&#45;&gt;29 -->
<g id="edge62" class="edge"><title>30-&gt;29</title>
<path fill="none" stroke="black" d="M1674.27,-219.503C1651.7,-208.9 1619.98,-193.997 1594.78,-182.158"></path>
<polygon fill="black" stroke="black" points="1596.01,-178.871 1585.47,-177.786 1593.04,-185.206 1596.01,-178.871"></polygon>
</g>
<!-- 31 -->
<g id="node65" class="node"><title>31</title>
<ellipse fill="none" stroke="black" cx="1703" cy="-162" rx="65.6185" ry="18"></ellipse>
<text text-anchor="middle" x="1703" y="-157.8" font-family="Times,serif" font-size="14.00">31 : Terlinden</text>
</g>
<!-- 30&#45;&gt;31 -->
<g id="edge64" class="edge"><title>30-&gt;31</title>
<path fill="none" stroke="black" d="M1703,-215.697C1703,-207.983 1703,-198.712 1703,-190.112"></path>
<polygon fill="black" stroke="black" points="1706.5,-190.104 1703,-180.104 1699.5,-190.104 1706.5,-190.104"></polygon>
</g>
<!-- 33 -->
<g id="node67" class="node"><title>33</title>
<ellipse fill="none" stroke="black" cx="1833" cy="-162" rx="46.1529" ry="18"></ellipse>
<text text-anchor="middle" x="1833" y="-157.8" font-family="Times,serif" font-size="14.00">33 : Tran</text>
</g>
<!-- 34&#45;&gt;33 -->
<g id="edge66" class="edge"><title>34-&gt;33</title>
<path fill="none" stroke="black" d="M1833,-215.697C1833,-207.983 1833,-198.712 1833,-190.112"></path>
<polygon fill="black" stroke="black" points="1836.5,-190.104 1833,-180.104 1829.5,-190.104 1836.5,-190.104"></polygon>
</g>
<!-- 36 -->
<g id="node69" class="node"><title>36</title>
<ellipse fill="none" stroke="red" cx="1967" cy="-162" rx="70.0505" ry="18"></ellipse>
<text text-anchor="middle" x="1967" y="-157.8" font-family="Times,serif" font-size="14.00">36 : Whitehead</text>
</g>
<!-- 34&#45;&gt;36 -->
<g id="edge68" class="edge"><title>34-&gt;36</title>
<path fill="none" stroke="black" d="M1860.44,-218.666C1880,-208.446 1906.58,-194.564 1928.29,-183.22"></path>
<polygon fill="black" stroke="black" points="1930.03,-186.264 1937.27,-178.531 1926.78,-180.059 1930.03,-186.264"></polygon>
</g>
<!-- 35 -->
<g id="node71" class="node"><title>35</title>
<ellipse fill="none" stroke="black" cx="1906" cy="-90" rx="48.0701" ry="18"></ellipse>
<text text-anchor="middle" x="1906" y="-85.8" font-family="Times,serif" font-size="14.00">35 : West</text>
</g>
<!-- 36&#45;&gt;35 -->
<g id="edge70" class="edge"><title>36-&gt;35</title>
<path fill="none" stroke="black" d="M1952.23,-144.055C1944.63,-135.33 1935.23,-124.544 1926.9,-114.981"></path>
<polygon fill="black" stroke="black" points="1929.42,-112.547 1920.21,-107.307 1924.14,-117.146 1929.42,-112.547"></polygon>
</g>
<!-- 37 -->
<g id="node73" class="node"><title>37</title>
<ellipse fill="none" stroke="black" cx="2028" cy="-90" rx="55.3395" ry="18"></ellipse>
<text text-anchor="middle" x="2028" y="-85.8" font-family="Times,serif" font-size="14.00">37 : Wright</text>
</g>
<!-- 36&#45;&gt;37 -->
<g id="edge72" class="edge"><title>36-&gt;37</title>
<path fill="none" stroke="black" d="M1981.77,-144.055C1989.26,-135.457 1998.5,-124.857 2006.74,-115.397"></path>
<polygon fill="black" stroke="black" points="2009.44,-117.628 2013.37,-107.789 2004.16,-113.029 2009.44,-117.628"></polygon>
</g>
<!-- 38 -->
<g id="node75" class="node"><title>38</title>
<ellipse fill="none" stroke="red" cx="2028" cy="-18" rx="43.142" ry="18"></ellipse>
<text text-anchor="middle" x="2028" y="-13.8" font-family="Times,serif" font-size="14.00">38 : Zell</text>
</g>
<!-- 37&#45;&gt;38 -->
<g id="edge74" class="edge"><title>37-&gt;38</title>
<path fill="none" stroke="black" d="M2028,-71.6966C2028,-63.9827 2028,-54.7125 2028,-46.1124"></path>
<polygon fill="black" stroke="black" points="2031.5,-46.1043 2028,-36.1043 2024.5,-46.1044 2031.5,-46.1043"></polygon>
</g>
</g>
</svg>